<svg width="1154" height="1235" viewBox="0 0 1154 1235" fill="none" xmlns="http://www.w3.org/2000/svg">
<rect x="719.808" y="50.5562" width="855.13" height="855.13" rx="37.5" transform="rotate(32.6865 719.808 50.5562)" stroke="#7CCE37" stroke-width="3"/>
<rect x="474.937" y="211.512" width="93.0375" height="93.0375" rx="10" transform="rotate(36.218 474.937 211.512)" fill="#F4FFEA"/>
<rect opacity="0.4" x="355.568" y="252.504" width="46.1765" height="46.1765" rx="5" transform="rotate(36.218 355.568 252.504)" fill="#E3FFCB"/>
<rect opacity="0.7" x="1058.82" y="43.3521" width="117.973" height="117.973" rx="10" transform="rotate(36.218 1058.82 43.3521)" fill="#EBFFDB"/>
<rect opacity="0.7" x="69.709" y="824.984" width="117.973" height="117.973" rx="10" transform="rotate(36.218 69.709 824.984)" fill="#EBFFDB"/>
<mask id="mask0_101_2" style="mask-type:alpha" maskUnits="userSpaceOnUse" x="413" y="132" width="876" height="762">
<path d="M1183.77 323.027C1282.33 501.429 1359.77 737.687 1181.33 836.274C1097.46 882.609 951.315 901.718 809.722 890.437C650.044 877.715 496.157 826.345 443.916 731.79C345.349 553.387 503.762 277.094 682.201 178.507C860.641 79.9205 1085.2 144.624 1183.77 323.027Z" fill="#F4FFCC"/>
</mask>
<g mask="url(#mask0_101_2)">
<path d="M1078.12 834.299H1171.39C1169.6 822.635 1162.27 824.682 1161.31 806.643C1160.83 797.539 1169.06 786.301 1168.35 774.339C1167.76 764.488 1158.26 754.403 1157.51 743.144C1156.85 732.973 1164.96 721.715 1164.17 710.755C1163.42 700.392 1153.8 690.477 1152.94 679.709C1152.11 669.218 1160.06 657.81 1159.12 647.213C1158.18 636.594 1148.39 626.85 1147.35 616.38C1146.28 605.634 1153.97 594.055 1152.8 583.757C1151.54 572.839 1141.46 563.393 1140.09 553.329C1138.56 542.113 1145.7 530.151 1144.03 520.471C1141.99 508.615 1131.17 500.043 1128.9 491.301C1124.66 475.01 1125.18 459.296 1120.2 458.272C1114.85 457.185 1113.64 472.58 1109.59 489.787C1107.57 498.423 1097.01 507.187 1095.25 519.063C1093.86 528.659 1101.31 540.343 1100.1 551.517C1099.01 561.517 1089.16 571.112 1088.2 581.987C1087.3 592.2 1095.28 603.48 1094.5 614.163C1093.73 624.547 1084.19 634.462 1083.55 644.996C1082.88 655.529 1091.12 666.595 1090.56 677.022C1089.97 687.705 1080.6 697.769 1080.12 708.047C1079.62 718.9 1088.01 729.86 1087.59 739.946C1087.14 751.119 1077.91 761.354 1077.56 771.098C1077.14 782.954 1085.65 793.892 1085.4 802.912C1084.84 822.507 1076.05 818.435 1075.74 834.192L1078.1 834.278L1078.12 834.299Z" fill="#C6FF00"/>
<path d="M1118.17 489.595V829.907" stroke="#263238" stroke-miterlimit="10"/>
<path d="M1132.72 525.268L1117.54 538.68L1105.13 521.75" stroke="#263238" stroke-miterlimit="10"/>
<path d="M1132.72 584.503L1117.54 597.915L1105.13 580.985" stroke="#263238" stroke-miterlimit="10"/>
<path d="M1132.72 640.219L1117.54 653.61L1105.13 636.68" stroke="#263238" stroke-miterlimit="10"/>
<path d="M1132.72 706.49L1117.54 719.902L1105.13 702.972" stroke="#263238" stroke-miterlimit="10"/>
<path d="M1132.72 773.486L1117.54 786.898L1105.13 769.968" stroke="#263238" stroke-miterlimit="10"/>
<path d="M749.814 834.299H879.55C877.066 818.094 866.86 820.93 865.525 795.811C864.836 783.167 876.294 767.495 875.313 750.884C874.499 737.195 861.288 723.165 860.265 707.493C859.347 693.356 870.617 677.683 869.511 662.438C868.467 648.045 855.089 634.228 853.899 619.259C852.751 604.653 863.792 588.81 862.477 574.055C861.183 559.278 847.533 545.717 846.093 531.175C844.612 516.206 855.298 500.107 853.649 485.8C851.916 470.597 837.87 457.483 835.971 443.474C833.842 427.887 843.798 411.234 841.46 397.779C838.601 381.297 823.594 369.356 820.422 357.202C814.536 334.536 815.267 312.68 808.316 311.273C800.886 309.759 799.196 331.167 793.581 355.113C790.764 367.139 776.07 379.314 773.649 395.818C771.687 409.187 782.081 425.435 780.37 440.958C778.846 454.86 765.176 468.23 763.84 483.348C762.587 497.57 773.691 513.242 772.606 528.104C771.541 542.54 758.267 556.336 757.349 571.006C756.43 585.654 767.889 601.049 767.096 615.549C766.303 630.389 753.258 644.42 752.59 658.706C751.881 673.824 763.548 689.07 762.984 703.079C762.358 718.602 749.501 732.845 749.021 746.428C748.458 762.91 760.292 778.135 759.937 790.673C759.144 817.923 746.934 812.273 746.496 834.192L749.793 834.32L749.814 834.299Z" fill="#C6FF00"/>
<path d="M805.52 354.835V828.179" stroke="#263238" stroke-width="2" stroke-miterlimit="10"/>
<path d="M825.764 404.475L804.643 423.111L787.361 399.571" stroke="#263238" stroke-width="2" stroke-miterlimit="10"/>
<path d="M825.764 486.845L804.643 505.481L787.361 481.94" stroke="#263238" stroke-width="2" stroke-miterlimit="10"/>
<path d="M825.764 564.332L804.643 582.968L787.361 559.427" stroke="#263238" stroke-width="2" stroke-miterlimit="10"/>
<path d="M825.764 656.531L804.643 675.167L787.361 651.627" stroke="#263238" stroke-width="2" stroke-miterlimit="10"/>
<path d="M825.764 749.712L804.643 768.348L787.361 744.807" stroke="#263238" stroke-miterlimit="10"/>
<path d="M721.283 687.833V803.338C721.283 814.917 730.466 824.299 741.8 824.299H976.246C987.58 824.299 996.763 814.917 996.763 803.338V790.182" stroke="#263238" stroke-width="2" stroke-linecap="round" stroke-linejoin="round"/>
<path d="M728.672 665.273H711.202V678.43H728.672V665.273Z" fill="#263238" stroke="#263238" stroke-linecap="round" stroke-linejoin="round"/>
<path d="M713.394 602.201H627.446V840.674H713.394V602.201Z" fill="white"/>
<mask id="mask1_101_2" style="mask-type:luminance" maskUnits="userSpaceOnUse" x="627" y="602" width="87" height="239">
<path d="M713.394 602.201H627.446V840.674H713.394V602.201Z" fill="white"/>
</mask>
<g mask="url(#mask1_101_2)">
<path d="M627.446 840.674H665.786V633.758L665.557 602.201H627.446V840.674Z" fill="#C6FF00"/>
<path opacity="0.5" d="M627.446 840.674H665.786V633.758L665.557 602.201H627.446V840.674Z" fill="white"/>
<path d="M682.546 715.318H676.494L680.939 702.972H666.454L660.214 720.265H664.576L657 741.247L682.546 715.318Z" fill="#263238"/>
</g>
<path d="M713.394 602.201H627.446V840.674H713.394V602.201Z" stroke="#263238" stroke-width="2" stroke-miterlimit="10"/>
<path d="M670.42 672.694C694.154 672.694 713.394 642.651 713.394 605.591C713.394 568.531 694.154 538.488 670.42 538.488C646.686 538.488 627.446 568.531 627.446 605.591C627.446 642.651 646.686 672.694 670.42 672.694Z" fill="white" stroke="#263238" stroke-width="2" stroke-linecap="round" stroke-linejoin="round"/>
<path d="M680.459 584.524H660.36C658.55 584.524 657.083 586.023 657.083 587.872V602.776C657.083 604.625 658.55 606.124 660.36 606.124H680.459C682.269 606.124 683.736 604.625 683.736 602.776V587.872C683.736 586.023 682.269 584.524 680.459 584.524Z" fill="#C6FF00" stroke="#263238" stroke-width="2" stroke-linecap="round" stroke-linejoin="round"/>
<path d="M685.134 645.571C685.134 637.277 678.559 630.539 670.419 630.539C662.28 630.539 655.705 637.255 655.705 645.571C655.705 653.887 662.28 660.604 670.419 660.604C678.559 660.604 685.134 653.887 685.134 645.571Z" fill="#263238" stroke="#263238" stroke-linecap="round" stroke-linejoin="round"/>
<path opacity="0.2" d="M677.766 645.571C677.766 641.413 674.469 638.066 670.42 638.066C666.371 638.066 663.073 641.435 663.073 645.571C663.073 649.708 666.371 653.077 670.42 653.077C674.469 653.077 677.766 649.708 677.766 645.571Z" fill="white"/>
<path d="M675.012 560.109C675.012 557.508 672.945 555.418 670.42 555.418C667.894 555.418 665.828 557.529 665.828 560.109C665.828 562.69 667.894 564.8 670.42 564.8C672.945 564.8 675.012 562.69 675.012 560.109Z" fill="#263238" stroke="#263238" stroke-linecap="round" stroke-linejoin="round"/>
<path d="M725.207 677.214H717.589V690.37H725.207V677.214Z" fill="#263238" stroke="#263238" stroke-linecap="round" stroke-linejoin="round"/>
<path d="M713.394 796.749H627.446V840.674H713.394V796.749Z" fill="#C6FF00" stroke="#263238" stroke-width="2" stroke-linecap="round" stroke-linejoin="round"/>
<path d="M870.262 659.197H869.135C864.314 659.197 860.912 654.378 862.394 649.687C863.813 645.209 866.213 640.71 870.262 640.006C878.611 638.577 901.569 645.699 901.569 650.668C901.569 655.636 901.569 657.768 898.793 657.768H881.408L867.487 673.398L867.194 673.142C864.085 670.54 864.168 665.807 867.194 663.099C868.342 662.075 869.428 660.774 870.283 659.175L870.262 659.197Z" fill="#263238" stroke="#263238" stroke-linecap="round" stroke-linejoin="round"/>
<path d="M1027.49 791.398H1258.47C1258.47 791.398 1291.86 768.646 1284.91 708.943C1277.96 649.239 1240.39 689.049 1226.47 728.837H1123.51C1123.51 728.837 1101.24 683.355 1065.07 689.027C1028.91 694.72 1027.51 791.376 1027.51 791.376L1027.49 791.398Z" fill="#263238" stroke="#263238" stroke-linecap="round" stroke-linejoin="round"/>
<path d="M1084.23 779.564C1084.23 762.036 1079.31 746.236 1071.46 735.106V718.474H1043.62C1021.18 718.474 1002.98 745.831 1002.98 779.564C1002.98 813.296 1021.18 840.653 1043.62 840.653H1071.46V824.022C1079.33 812.87 1084.23 797.091 1084.23 779.564Z" fill="#263238" stroke="#263238" stroke-linecap="round" stroke-linejoin="round"/>
<path d="M1071.46 840.653C1093.9 840.653 1112.1 813.302 1112.1 779.564C1112.1 745.825 1093.9 718.474 1071.46 718.474C1049.02 718.474 1030.82 745.825 1030.82 779.564C1030.82 813.302 1049.02 840.653 1071.46 840.653Z" fill="#263238"/>
<mask id="mask2_101_2" style="mask-type:luminance" maskUnits="userSpaceOnUse" x="1030" y="718" width="83" height="123">
<path d="M1071.46 840.653C1093.9 840.653 1112.1 813.302 1112.1 779.564C1112.1 745.825 1093.9 718.474 1071.46 718.474C1049.02 718.474 1030.82 745.825 1030.82 779.564C1030.82 813.302 1049.02 840.653 1071.46 840.653Z" fill="white"/>
</mask>
<g mask="url(#mask2_101_2)">
<path opacity="0.2" d="M1071.46 840.653C1093.9 840.653 1112.1 813.302 1112.1 779.564C1112.1 745.825 1093.9 718.474 1071.46 718.474C1049.02 718.474 1030.82 745.825 1030.82 779.564C1030.82 813.302 1049.02 840.653 1071.46 840.653Z" fill="white"/>
</g>
<path d="M1071.46 840.653C1093.9 840.653 1112.1 813.302 1112.1 779.564C1112.1 745.825 1093.9 718.474 1071.46 718.474C1049.02 718.474 1030.82 745.825 1030.82 779.564C1030.82 813.302 1049.02 840.653 1071.46 840.653Z" stroke="#263238" stroke-linecap="round" stroke-linejoin="round"/>
<path d="M833.236 718.474H806.918C785.712 718.474 768.515 745.831 768.515 779.564C768.515 813.296 785.712 840.653 806.918 840.653H833.236C854.442 840.653 871.639 813.296 871.639 779.564C871.639 745.831 854.442 718.474 833.236 718.474Z" fill="#263238" stroke="#263238" stroke-linecap="round" stroke-linejoin="round"/>
<path d="M1071.46 828.307C1089.36 828.307 1103.87 806.484 1103.87 779.564C1103.87 752.643 1089.36 730.82 1071.46 730.82C1053.56 730.82 1039.05 752.643 1039.05 779.564C1039.05 806.484 1053.56 828.307 1071.46 828.307Z" fill="white" stroke="#263238" stroke-linecap="round" stroke-linejoin="round"/>
<path d="M1037.21 794.489C1037.21 745.81 1053.76 706.341 1074.2 706.341C1094.63 706.341 1111.18 745.81 1111.18 794.489C1111.18 797.155 1111.12 799.799 1111.03 802.422H1242.77C1242.71 799.799 1242.67 797.176 1242.67 794.489C1242.67 745.81 1254.73 706.341 1269.61 706.341C1279.55 706.341 1288.23 723.975 1292.91 750.181V678.28C1292.91 671.521 1288.19 665.721 1281.68 664.485C1281.47 664.442 1281.26 664.399 1281.03 664.357C1271.91 662.48 1255.46 644.761 1229.9 622.372C1204.33 599.983 1181.5 598.128 1181.5 598.128H950.826C946.464 598.128 942.227 599.599 938.783 602.329L860.098 664.357C860.098 664.357 789.804 678.344 774.276 694.209C758.748 710.073 760.584 802.422 760.584 802.422H1037.4C1037.3 799.799 1037.25 797.176 1037.25 794.489H1037.21Z" fill="#C6FF00"/>
<mask id="mask3_101_2" style="mask-type:luminance" maskUnits="userSpaceOnUse" x="760" y="598" width="533" height="205">
<path d="M1037.21 794.489C1037.21 745.81 1053.76 706.341 1074.2 706.341C1094.63 706.341 1111.18 745.81 1111.18 794.489C1111.18 797.155 1111.12 799.799 1111.03 802.422H1242.77C1242.71 799.799 1242.67 797.176 1242.67 794.489C1242.67 745.81 1254.73 706.341 1269.61 706.341C1279.55 706.341 1288.23 723.975 1292.91 750.181V678.28C1292.91 671.521 1288.19 665.721 1281.68 664.485C1281.47 664.442 1281.26 664.399 1281.03 664.357C1271.91 662.48 1255.46 644.761 1229.9 622.372C1204.33 599.983 1181.5 598.128 1181.5 598.128H950.826C946.464 598.128 942.227 599.599 938.783 602.329L860.098 664.357C860.098 664.357 789.804 678.344 774.276 694.209C758.748 710.073 760.584 802.422 760.584 802.422H1037.4C1037.3 799.799 1037.25 797.176 1037.25 794.489H1037.21Z" fill="white"/>
</mask>
<g mask="url(#mask3_101_2)">
<path opacity="0.3" d="M1082.88 664.378L1095.09 598.15H950.804C946.442 598.15 942.205 599.621 938.762 602.35L860.077 664.378C860.077 664.378 789.782 678.366 774.254 694.23C758.726 710.094 760.563 802.443 760.563 802.443H1007.55C1009.33 752.591 1020.51 728.88 1020.51 728.88H952.328C1005.19 670.605 1082.86 664.4 1082.86 664.4L1082.88 664.378Z" fill="black"/>
</g>
<path d="M1037.21 794.489C1037.21 745.81 1053.76 706.341 1074.2 706.341C1094.63 706.341 1111.18 745.81 1111.18 794.489C1111.18 797.155 1111.12 799.799 1111.03 802.422H1242.77C1242.71 799.799 1242.67 797.176 1242.67 794.489C1242.67 745.81 1254.73 706.341 1269.61 706.341C1279.55 706.341 1288.23 723.975 1292.91 750.181V678.28C1292.91 671.521 1288.19 665.721 1281.68 664.485C1281.47 664.442 1281.26 664.399 1281.03 664.357C1271.91 662.48 1255.46 644.761 1229.9 622.372C1204.33 599.983 1181.5 598.128 1181.5 598.128H950.826C946.464 598.128 942.227 599.599 938.783 602.329L860.098 664.357C860.098 664.357 789.804 678.344 774.276 694.209C758.748 710.073 760.584 802.422 760.584 802.422H1037.4C1037.3 799.799 1037.25 797.176 1037.25 794.489H1037.21Z" stroke="#263238" stroke-width="2" stroke-linecap="round" stroke-linejoin="round"/>
<path d="M1124.87 598.149H950.804C946.442 598.149 942.205 599.621 938.762 602.35L860.077 664.378H1082.86L1124.85 598.149H1124.87Z" fill="#C6FF00" stroke="#263238" stroke-linecap="round" stroke-linejoin="round"/>
<path d="M1033.71 689.326C1021.18 689.475 999.247 690.328 989.75 694.23C976.059 699.817 966.917 705.425 966.917 705.425H1011.67L1033.71 689.326Z" fill="#263238" stroke="#263238" stroke-linecap="round" stroke-linejoin="round"/>
<path d="M1014.4 719.412V711.011H966.917L975.516 719.113C975.37 719.199 975.245 719.305 975.141 719.391H1014.4V719.412Z" fill="#263238" stroke="#263238" stroke-linecap="round" stroke-linejoin="round"/>
<path d="M1018.97 707.279V719.476C1021.93 719.113 1025.67 717.791 1028.09 713.804C1032.66 706.341 1042.93 689.304 1042.93 689.304L1018.95 707.258L1018.97 707.279Z" fill="#263238" stroke="#263238" stroke-linecap="round" stroke-linejoin="round"/>
<path d="M778.678 719.114L787.277 711.011H767.011C766.385 713.634 765.801 716.448 765.279 719.412H779.054C779.054 719.412 778.824 719.22 778.678 719.135V719.114Z" fill="#263238" stroke="#263238" stroke-linecap="round" stroke-linejoin="round"/>
<path d="M771.895 697.45C770.643 699.603 769.537 702.29 768.556 705.424H787.277C787.277 705.424 781.35 701.8 771.895 697.45Z" fill="#263238" stroke="#263238" stroke-linecap="round" stroke-linejoin="round"/>
<path d="M1082.88 664.378H1218C1218 664.378 1237.18 657.853 1231.69 633.588C1229.83 625.357 1191.51 606.529 1186.04 606.529H1120.3L1082.86 664.357L1082.88 664.378Z" fill="#263238"/>
<mask id="mask4_101_2" style="mask-type:luminance" maskUnits="userSpaceOnUse" x="1082" y="606" width="151" height="59">
<path d="M1082.88 664.378H1218C1218 664.378 1237.18 657.853 1231.69 633.588C1229.83 625.357 1191.51 606.529 1186.04 606.529H1120.3L1082.86 664.357L1082.88 664.378Z" fill="white"/>
</mask>
<g mask="url(#mask4_101_2)">
<path opacity="0.2" d="M1082.88 664.378H1218C1218 664.378 1237.18 657.853 1231.69 633.588C1229.83 625.357 1191.51 606.529 1186.04 606.529H1120.3L1082.86 664.357L1082.88 664.378Z" fill="white" stroke="#263238" stroke-linecap="round" stroke-linejoin="round"/>
</g>
<path d="M1082.88 664.378H1218C1218 664.378 1237.18 657.853 1231.69 633.588C1229.83 625.357 1191.51 606.529 1186.04 606.529H1120.3L1082.86 664.357L1082.88 664.378Z" stroke="#263238" stroke-linecap="round" stroke-linejoin="round"/>
<path d="M933.44 606.551L860.098 664.378H1082.88L1119.55 606.551H933.44Z" fill="#263238" stroke="#263238" stroke-linecap="round" stroke-linejoin="round"/>
<path d="M790.701 707.279V726.875L804.393 737.131H914.864L940.432 725.937V707.279H790.701Z" fill="#263238" stroke="#263238" stroke-linecap="round" stroke-linejoin="round"/>
<path opacity="0.3" d="M795.815 707.279H790.701V712.503H795.815V707.279Z" fill="white"/>
<path opacity="0.3" d="M801.45 713.058H796.337V718.282H801.45V713.058Z" fill="white"/>
<path opacity="0.3" d="M807.106 718.815H801.992V724.039H807.106V718.815Z" fill="white"/>
<path opacity="0.3" d="M812.741 724.593H807.628V729.817H812.741V724.593Z" fill="white"/>
<path opacity="0.3" d="M939.43 707.279H934.316V712.503H939.43V707.279Z" fill="white"/>
<path opacity="0.3" d="M933.794 713.058H928.681V718.282H933.794V713.058Z" fill="white"/>
<path opacity="0.3" d="M928.139 718.815H923.025V724.039H928.139V718.815Z" fill="white"/>
<path opacity="0.3" d="M922.504 724.593H917.39V729.817H922.504V724.593Z" fill="white"/>
<path opacity="0.3" d="M820.588 724.593H815.475V729.817H820.588V724.593Z" fill="white"/>
<path opacity="0.3" d="M828.416 724.593H823.302V729.817H828.416V724.593Z" fill="white"/>
<path opacity="0.3" d="M836.263 724.593H831.149V729.817H836.263V724.593Z" fill="white"/>
<path opacity="0.3" d="M844.111 724.593H838.997V729.817H844.111V724.593Z" fill="white"/>
<path opacity="0.3" d="M851.937 724.593H846.824V729.817H851.937V724.593Z" fill="white"/>
<path opacity="0.3" d="M859.785 724.593H854.672V729.817H859.785V724.593Z" fill="white"/>
<path opacity="0.3" d="M867.612 724.593H862.498V729.817H867.612V724.593Z" fill="white"/>
<path opacity="0.3" d="M875.459 724.593H870.346V729.817H875.459V724.593Z" fill="white"/>
<path opacity="0.3" d="M883.307 724.593H878.194V729.817H883.307V724.593Z" fill="white"/>
<path opacity="0.3" d="M891.134 724.593H886.02V729.817H891.134V724.593Z" fill="white"/>
<path opacity="0.3" d="M898.981 724.593H893.868V729.817H898.981V724.593Z" fill="white"/>
<path opacity="0.3" d="M906.808 724.593H901.695V729.817H906.808V724.593Z" fill="white"/>
<path opacity="0.3" d="M914.655 724.593H909.542V729.817H914.655V724.593Z" fill="white"/>
<path d="M993.403 761.375H766.052L763.005 736.492C761.607 750.159 760.981 764.744 760.709 776.706L761.502 780.033L766.073 770.715H785.567L773.378 780.971H954.165L947.716 770.715H993.424L1006.2 778.178H1015.32V730.606L993.403 761.397V761.375Z" fill="#263238" stroke="#263238" stroke-linecap="round" stroke-linejoin="round"/>
<path d="M1130.44 659.197H1129.32C1124.47 659.197 1121.09 654.378 1122.57 649.687C1123.99 645.209 1126.39 640.71 1130.44 640.006C1138.79 638.577 1161.75 645.699 1161.75 650.668C1161.75 655.636 1161.75 657.768 1158.97 657.768H1141.59L1127.67 673.398L1127.38 673.142C1124.27 670.54 1124.35 665.807 1127.38 663.099C1128.52 662.075 1129.61 660.774 1130.46 659.175L1130.44 659.197Z" fill="#AAFF00"/>
<path d="M1007.3 622.244L1010.08 630.07C1010.08 630.07 1004.51 635.038 1004.51 642.863V664.378H987.371L1001.71 622.244H1007.28H1007.3ZM927.303 632.906C915.553 640.219 897.812 656.339 889.213 664.378H946.422L976.017 617.98L956.544 619.408C956.544 619.408 943.333 622.969 927.324 632.906H927.303ZM1045.58 627.212L1038.63 625.784H1028.88L1026.11 628.62C1026.11 628.62 1033.06 629.323 1033.77 633.588C1034.46 637.853 1034.46 646.382 1034.46 646.382H1039.32C1039.32 646.382 1039.32 638.556 1042.8 635.017C1046.29 631.477 1049.07 629.323 1049.07 629.323L1045.58 627.191V627.212Z" fill="white" stroke="#263238" stroke-linecap="round" stroke-linejoin="round"/>
<path d="M1127.38 673.163L1127.67 673.419L1141.59 657.789H1158.97C1161.27 657.789 1161.67 656.297 1161.73 652.992H1122.32C1122.8 656.403 1125.64 659.218 1129.32 659.218H1130.44C1129.57 660.817 1128.48 662.097 1127.35 663.141C1124.35 665.849 1124.27 670.604 1127.35 673.184L1127.38 673.163Z" fill="#263238" stroke="#263238" stroke-linecap="round" stroke-linejoin="round"/>
<path d="M1228.48 788.967H1111.1C1111.14 790.801 1111.18 792.634 1111.18 794.489C1111.18 797.155 1111.12 799.799 1111.03 802.421H1242.77C1242.71 799.799 1242.67 797.176 1242.67 794.489C1242.67 794.297 1242.67 794.127 1242.67 793.935L1228.5 788.967H1228.48Z" fill="#263238" stroke="#263238" stroke-linecap="round" stroke-linejoin="round"/>
<path d="M1037.21 794.489C1037.21 792.634 1037.25 790.801 1037.29 788.967H760.521C760.479 797.176 760.563 802.421 760.563 802.421H1037.38C1037.27 799.799 1037.23 797.176 1037.23 794.489H1037.21Z" fill="#263238" stroke="#263238" stroke-linecap="round" stroke-linejoin="round"/>
</g>
<rect x="610.624" y="106" width="859.537" height="859.537" rx="39" transform="rotate(17.5497 610.624 106)" fill="white"/>
<g filter="url(#filter0_d_101_2)">
<path d="M253.35 665.128L268.281 624.889C268.733 623.67 268.498 622.301 267.664 621.298L240.123 588.154C239.289 587.151 237.983 586.665 236.697 586.879L194.224 593.973C192.938 594.188 191.867 595.071 191.415 596.29L176.484 636.529C176.032 637.748 176.267 639.117 177.101 640.12L204.642 673.264C205.476 674.267 206.782 674.753 208.068 674.539L250.539 667.446C251.825 667.232 252.896 666.348 253.348 665.129L253.35 665.128Z" fill="#3F7115" stroke="#3F7115" stroke-width="3" stroke-miterlimit="10"/>
<path d="M243.469 667.405L258.88 625.87C259.419 624.418 259.15 622.791 258.172 621.602L230.22 587.566C229.244 586.377 227.709 585.806 226.192 586.067L182.83 593.568C181.316 593.83 180.049 594.885 179.511 596.337L164.099 637.872C163.56 639.324 163.83 640.95 164.808 642.14L192.759 676.176C193.736 677.364 195.271 677.936 196.787 677.675L240.151 670.174C241.665 669.913 242.932 668.857 243.471 667.405L243.469 667.405Z" fill="white" stroke="#7CCE37" stroke-width="2" stroke-miterlimit="10"/>
<path opacity="0.28" d="M238.258 597.135L164.431 641.446L174.007 653.15L247.04 607.828L238.258 597.135Z" fill="#7CCE37"/>
<path opacity="0.28" d="M252.689 614.835L180.108 660.772L183.854 665.335L256.241 619.251L252.689 614.835Z" fill="#7CCE37"/>
<path d="M233.972 656.977L244.972 627.334C245.474 625.979 245.222 624.459 244.31 623.35L224.362 599.059C223.45 597.948 222.016 597.414 220.601 597.66L189.654 603.013C188.239 603.258 187.057 604.243 186.555 605.598L175.555 635.241C175.053 636.596 175.305 638.116 176.217 639.225L196.165 663.516C197.077 664.627 198.511 665.161 199.926 664.915L230.873 659.563C232.288 659.317 233.47 658.333 233.972 656.977Z" fill="#3F7115"/>
<path d="M244.811 624.397L225.136 600.438C223.959 599.006 222.109 598.318 220.286 598.634L195.576 602.908C195.044 602.999 194.558 603.279 194.219 603.705C193.585 604.495 193.071 605.393 192.707 606.374L182.992 632.554C182.249 634.558 182.623 636.803 183.97 638.445L202.925 661.527C204.254 663.144 206.341 663.92 208.402 663.565L232.731 659.358C233.263 659.266 233.749 658.986 234.088 658.561C234.722 657.77 235.236 656.873 235.6 655.891L245.577 629.005C246.158 627.439 245.867 625.682 244.812 624.397L244.811 624.397Z" fill="white" stroke="#7CCE37" stroke-miterlimit="10"/>
<g clip-path="url(#clip0_101_2)">
<path d="M209.977 639.535C209.002 642.05 210.212 644.944 212.62 646.026C215.296 647.23 218.417 645.884 219.487 643.123C219.569 642.914 219.676 642.531 219.773 642.17C219.972 641.41 220.251 640.67 220.605 639.968C222.406 636.382 225.185 633.374 228.617 631.318L229.189 630.974C230.37 630.432 231.356 629.442 231.876 628.128C232.884 625.575 231.728 622.625 229.28 621.521C226.603 620.315 223.482 621.66 222.411 624.423C222.369 624.532 222.336 624.644 222.301 624.755L222.287 624.741L222.014 625.495C220.351 630.082 217.166 633.955 213.016 636.445C213.016 636.445 210.865 637.252 209.979 639.538L209.977 639.535Z" fill="#7BCF33"/>
<path d="M214.091 620.012L213.993 619.859C212.709 617.859 209.977 617.269 207.905 618.513L214.091 620.012ZM214.091 620.012C214.6 620.879 214.739 621.78 214.744 622.49C214.747 622.864 214.712 623.179 214.677 623.399C214.659 623.509 214.642 623.594 214.629 623.65C214.623 623.678 214.618 623.698 214.615 623.711L214.611 623.724L214.611 623.724L214.611 623.725L214.611 623.725L214.611 623.725L214.611 623.726L214.599 623.767L214.595 623.812C214.117 628.774 215.361 633.728 218.113 637.813C218.113 637.813 218.113 637.813 218.113 637.813L218.149 637.866L218.093 637.879L218.549 638.492C218.555 638.5 218.561 638.509 218.568 638.517C218.632 638.603 218.683 638.672 218.731 638.745C220.154 640.96 219.456 643.992 217.144 645.377L214.091 620.012ZM206.883 625.878L206.883 625.878C207.395 626.502 207.843 627.183 208.212 627.907L208.212 627.907C210.06 631.523 210.839 635.627 210.443 639.734L210.443 639.734L206.883 625.878ZM206.883 625.878C206.65 625.594 206.425 625.304 206.321 625.144M206.883 625.878L206.321 625.144M206.321 625.144C204.898 622.926 205.595 619.899 207.905 618.513L206.321 625.144ZM210.38 640.402L210.443 639.734L217.144 645.378C215.039 646.637 212.292 645.984 210.993 643.928L210.992 643.928C210.319 642.865 210.131 641.622 210.372 640.455L210.377 640.429L210.38 640.402Z" fill="white" stroke="#7CCE37"/>
<path d="M211.678 626.83L211.678 626.831L211.678 626.831L211.677 626.831L211.677 626.831L211.636 626.846L211.597 626.87C207.347 629.419 204.088 633.384 202.385 638.078L202.385 638.078L202.379 638.095L202.338 638.054L202.091 638.838C202.083 638.866 202.075 638.891 202.067 638.916C202.041 639.002 202.019 639.07 201.993 639.139C201.021 641.647 198.199 642.85 195.795 641.766C193.6 640.776 192.545 638.113 193.459 635.799C193.93 634.608 194.822 633.713 195.887 633.222L195.912 633.211L195.935 633.197L196.507 632.853C196.507 632.853 196.507 632.853 196.507 632.853C200.021 630.748 202.866 627.669 204.709 623.999C205.079 623.265 205.37 622.493 205.578 621.701C205.676 621.333 205.777 620.979 205.846 620.8C206.817 618.294 209.639 617.091 212.042 618.172C214.207 619.146 215.302 621.759 214.424 624.026C214.024 625.057 213.337 625.761 212.74 626.21C212.442 626.434 212.17 626.592 211.974 626.693C211.877 626.743 211.799 626.779 211.747 626.802C211.722 626.813 211.702 626.821 211.691 626.826L211.679 626.83L211.678 626.83Z" fill="#7BCF33" stroke="#7CCE37"/>
<path d="M212.185 623.018C211.774 624.078 210.61 624.595 209.597 624.203C208.585 623.811 208.073 622.644 208.484 621.584C208.895 620.523 210.059 620.006 211.072 620.399C212.084 620.791 212.596 621.958 212.185 623.018Z" fill="white" stroke="white"/>
<path d="M199.734 638.167C199.323 639.227 198.159 639.744 197.146 639.352C196.134 638.96 195.622 637.793 196.033 636.733C196.444 635.672 197.608 635.155 198.621 635.548C199.633 635.94 200.145 637.107 199.734 638.167Z" fill="white" stroke="white"/>
<path d="M216.789 641.911C216.378 642.971 215.213 643.488 214.201 643.096C213.188 642.704 212.676 641.537 213.087 640.477C213.498 639.417 214.663 638.899 215.675 639.292C216.688 639.684 217.199 640.851 216.789 641.911Z" fill="white" stroke="#7CCE37"/>
<path d="M226.066 628.661C227.345 629.157 228.793 628.499 229.3 627.191C229.807 625.883 229.181 624.42 227.901 623.924C226.622 623.428 225.174 624.087 224.667 625.395C224.16 626.703 224.786 628.165 226.066 628.661Z" fill="white"/>
</g>
</g>
<path d="M559.588 699.457C559.588 702.888 562.504 705.763 566.041 705.941C569.971 706.138 573.223 703.108 573.223 699.342C573.223 699.056 573.172 698.553 573.118 698.079C572.999 697.087 572.989 696.081 573.09 695.085C573.606 690.005 575.623 685.16 578.919 681.144L579.469 680.474C580.683 679.287 581.435 677.66 581.449 675.863C581.473 672.372 578.597 669.405 574.999 669.221C571.066 669.02 567.814 672.05 567.814 675.82C567.814 675.968 567.828 676.116 567.838 676.264L567.814 676.254L567.838 677.273C567.98 683.477 565.875 689.535 561.89 694.395C561.89 694.395 559.591 696.341 559.591 699.46L559.588 699.457Z" fill="#7BCF33"/>
<path d="M555.468 673.762C552.586 671.768 548.476 672.402 546.276 675.087C543.827 678.074 544.482 682.396 547.646 684.585C547.886 684.749 548.337 685.006 548.768 685.236C549.67 685.719 550.521 686.294 551.297 686.951C555.265 690.31 558.161 694.714 559.622 699.65L559.866 700.472C560.158 702.119 561.083 703.657 562.589 704.712C565.505 706.759 569.669 706.214 571.914 703.482C574.365 700.495 573.711 696.167 570.547 693.981C570.422 693.896 570.293 693.82 570.161 693.741L570.181 693.728L569.313 693.153C564.02 689.659 560.154 684.48 558.388 678.515C558.388 678.515 558.089 675.57 555.472 673.759L555.468 673.762Z" fill="#FFCF00"/>
<path d="M558.303 679.021C558.303 675.59 555.387 672.714 551.85 672.536C547.92 672.339 544.668 675.369 544.668 679.136C544.668 679.422 544.719 679.925 544.773 680.398C544.892 681.39 544.902 682.396 544.801 683.392C544.285 688.473 542.268 693.317 538.972 697.333L538.422 698.004C537.212 699.19 536.459 700.817 536.445 702.615C536.422 706.105 539.297 709.073 542.895 709.257C546.828 709.457 550.08 706.427 550.08 702.657C550.08 702.509 550.067 702.362 550.056 702.214L550.08 702.224L550.056 701.205C549.914 695 552.02 688.943 556.004 684.082C556.004 684.082 558.303 682.136 558.303 679.017V679.021Z" fill="#FE0013"/>
<path d="M556.004 684.082C556.004 684.082 558.303 682.136 558.303 679.018C558.303 676.451 556.669 674.196 554.366 673.148C554.359 673.148 554.353 673.141 554.346 673.138C554.332 673.131 554.315 673.128 554.302 673.122C551.562 671.965 548.195 672.744 546.276 675.084C543.827 678.071 544.482 682.393 547.646 684.582C547.886 684.746 548.337 685.002 548.768 685.232C549.67 685.715 550.521 686.291 551.297 686.948C551.904 687.461 552.481 688.003 553.037 688.562C553.864 686.984 554.851 685.479 556.001 684.079L556.004 684.082Z" fill="#FF7A00"/>
<path d="M551.681 682.084C553.522 682.084 555.014 680.638 555.014 678.853C555.014 677.069 553.522 675.623 551.681 675.623C549.84 675.623 548.348 677.069 548.348 678.853C548.348 680.638 549.84 682.084 551.681 682.084Z" fill="white"/>
<path d="M543.451 705.773C545.292 705.773 546.785 704.327 546.785 702.542C546.785 700.758 545.292 699.312 543.451 699.312C541.61 699.312 540.118 700.758 540.118 702.542C540.118 704.327 541.61 705.773 543.451 705.773Z" fill="white"/>
<path d="M570.547 693.981C570.422 693.896 570.293 693.82 570.161 693.741L570.181 693.728L569.313 693.153C567.743 692.118 566.305 690.931 565.003 689.623C564.145 691.306 563.104 692.906 561.887 694.395C561.887 694.395 559.588 696.341 559.588 699.46C559.588 699.489 559.591 699.519 559.591 699.552C559.602 699.584 559.612 699.617 559.622 699.653L559.866 700.475C560.158 702.122 561.083 703.66 562.589 704.715C563.81 705.569 565.247 705.967 566.672 705.947C570.313 705.809 573.219 702.907 573.219 699.345C573.219 699.059 573.168 698.556 573.114 698.083C573.08 697.806 573.06 697.53 573.043 697.251C572.602 695.979 571.761 694.822 570.547 693.984V693.981Z" fill="#D2D500"/>
<path d="M566.597 702.375C568.438 702.375 569.93 700.928 569.93 699.144C569.93 697.36 568.438 695.914 566.597 695.914C564.756 695.914 563.264 697.36 563.264 699.144C563.264 700.928 564.756 702.375 566.597 702.375Z" fill="white"/>
<path d="M574.44 679.166C576.281 679.166 577.773 677.719 577.773 675.935C577.773 674.151 576.281 672.705 574.44 672.705C572.599 672.705 571.107 674.151 571.107 675.935C571.107 677.719 572.599 679.166 574.44 679.166Z" fill="white"/>
<path d="M1234.34 314.759C1223.58 308.886 1218.69 313.768 1214.78 308.886C1210.87 303.98 1225.54 291.245 1196.2 278.509C1196.2 278.509 1194.25 251.08 1154.15 250.089C1114.05 249.098 1124.81 277.518 1114.05 284.381C1103.3 291.245 1100.35 280.466 1089.59 287.33C1078.83 294.193 1083.73 307.895 1074.92 309.853C1066.12 311.81 1054.39 301.032 1043.63 307.895C1032.87 314.759 1032.87 320.631 1027.98 320.631C1023.08 320.631 1013.31 316.716 1007.44 320.631C1001.58 324.546 994.731 329.452 994.731 329.452H1242.18C1242.18 329.452 1245.13 320.631 1234.37 314.759H1234.34Z" fill="white"/>
<path opacity="0.5" d="M1234.34 314.759C1223.58 308.886 1218.69 313.768 1214.78 308.886C1210.87 303.98 1225.54 291.245 1196.2 278.509C1196.2 278.509 1194.25 251.08 1154.15 250.089C1114.05 249.098 1124.81 277.518 1114.05 284.381C1103.3 291.245 1100.35 280.466 1089.59 287.33C1078.83 294.193 1083.73 307.895 1074.92 309.853C1066.12 311.81 1054.39 301.032 1043.63 307.895C1032.87 314.759 1032.87 320.631 1027.98 320.631C1023.08 320.631 1013.31 316.716 1007.44 320.631C1001.58 324.546 994.731 329.452 994.731 329.452H1242.18C1242.18 329.452 1245.13 320.631 1234.37 314.759H1234.34Z" fill="#E3FFCB"/>
<path d="M371.631 496.166C360.871 490.294 355.974 495.176 352.066 490.294C348.157 485.388 362.826 472.652 333.489 459.916C333.489 459.916 331.535 432.487 291.439 431.496C251.342 430.506 262.102 458.926 251.342 465.789C240.582 472.652 237.639 461.874 226.879 468.737C216.119 475.601 221.017 489.303 212.211 491.261C203.405 493.218 191.68 482.44 180.92 489.303C170.161 496.166 170.161 502.039 165.263 502.039C160.366 502.039 150.595 498.124 144.732 502.039C138.87 505.954 132.018 510.86 132.018 510.86H379.472C379.472 510.86 382.415 502.039 371.656 496.166H371.631Z" fill="white"/>
<path opacity="0.5" d="M371.631 496.166C360.871 490.294 355.974 495.176 352.066 490.294C348.157 485.388 362.826 472.652 333.489 459.916C333.489 459.916 331.535 432.487 291.439 431.496C251.342 430.506 262.102 458.926 251.342 465.789C240.582 472.652 237.639 461.874 226.879 468.737C216.119 475.601 221.017 489.303 212.211 491.261C203.405 493.218 191.68 482.44 180.92 489.303C170.161 496.166 170.161 502.039 165.263 502.039C160.366 502.039 150.595 498.124 144.732 502.039C138.87 505.954 132.018 510.86 132.018 510.86H379.472C379.472 510.86 382.415 502.039 371.656 496.166H371.631Z" fill="#E3FFCB"/>
<path d="M948.627 415.268C942.258 411.788 939.363 414.688 937.023 411.788C934.707 408.888 943.392 401.324 925.998 393.784C925.998 393.784 924.84 377.52 901.076 376.94C877.313 376.36 883.682 393.204 877.313 397.264C870.944 401.324 869.207 394.944 862.814 399.004C856.444 403.064 859.339 411.208 854.128 412.368C848.917 413.528 841.945 407.148 835.576 411.208C829.207 415.268 829.207 418.748 826.312 418.748C823.417 418.748 817.627 416.428 814.129 418.748C810.655 421.068 806.601 423.968 806.601 423.968H953.26C953.26 423.968 954.997 418.748 948.627 415.268Z" fill="#E3FFCB"/>
<path opacity="0.5" d="M948.627 415.268C942.258 411.788 939.363 414.688 937.023 411.788C934.707 408.888 943.392 401.324 925.998 393.784C925.998 393.784 924.84 377.52 901.076 376.94C877.313 376.36 883.682 393.204 877.313 397.264C870.944 401.324 869.207 394.944 862.814 399.004C856.444 403.064 859.339 411.208 854.128 412.368C848.917 413.528 841.945 407.148 835.576 411.208C829.207 415.268 829.207 418.748 826.312 418.748C823.417 418.748 817.627 416.428 814.129 418.748C810.655 421.068 806.601 423.968 806.601 423.968H953.26C953.26 423.968 954.997 418.748 948.627 415.268Z" fill="#E3FFCB"/>
<path d="M618.641 640.453V771.364C618.641 784.486 629.256 795.12 642.356 795.12H913.356C926.456 795.12 937.072 784.486 937.072 771.364V756.453" stroke="#263238" stroke-width="2" stroke-linecap="round" stroke-linejoin="round"/>
<path d="M627.181 614.885H606.988V629.796H627.181V614.885Z" fill="#263238" stroke="#263238" stroke-linecap="round" stroke-linejoin="round"/>
<path d="M609.522 543.375H510.173V813.655H609.522V543.375Z" fill="white"/>
<mask id="mask5_101_2" style="mask-type:luminance" maskUnits="userSpaceOnUse" x="510" y="543" width="100" height="271">
<path d="M609.522 543.375H510.173V813.655H609.522V543.375Z" fill="white"/>
</mask>
<g mask="url(#mask5_101_2)">
<path d="M510.173 813.655H554.492V579.166L554.226 543.375H510.173V813.655Z" fill="#B3DE8F"/>
<path d="M575.975 629.127H568.978L574.117 615.135H557.374L550.161 634.734H555.203L546.445 658.514L575.975 629.127Z" fill="#263238"/>
</g>
<g style="mix-blend-mode:darken" clip-path="url(#clip1_101_2)">
<path d="M558.445 696.918C558.445 699.744 560.713 702.114 563.464 702.26C566.521 702.422 569.05 699.926 569.05 696.823C569.05 696.587 569.01 696.173 568.968 695.783C568.876 694.966 568.868 694.137 568.947 693.317C569.348 689.131 570.917 685.14 573.48 681.831L573.908 681.279C574.852 680.301 575.437 678.961 575.448 677.48C575.466 674.605 573.23 672.16 570.432 672.008C567.372 671.843 564.843 674.339 564.843 677.445C564.843 677.567 564.854 677.688 564.862 677.81L564.843 677.802L564.862 678.642C564.972 683.753 563.335 688.744 560.236 692.748C560.236 692.748 558.448 694.351 558.448 696.92L558.445 696.918Z" fill="#7BCF33"/>
<path d="M555.241 675.75C552.999 674.106 549.803 674.629 548.091 676.841C546.187 679.302 546.696 682.863 549.157 684.666C549.344 684.801 549.695 685.013 550.029 685.202C550.731 685.6 551.393 686.074 551.997 686.615C555.083 689.383 557.335 693.011 558.472 697.078L558.661 697.754C558.888 699.111 559.608 700.378 560.779 701.247C563.047 702.934 566.286 702.485 568.032 700.235C569.939 697.773 569.43 694.208 566.969 692.407C566.871 692.337 566.771 692.274 566.668 692.209L566.684 692.198L566.009 691.725C561.892 688.846 558.886 684.579 557.512 679.665C557.512 679.665 557.28 677.239 555.243 675.747L555.241 675.75Z" fill="#FFCF00"/>
<path d="M557.446 680.082C557.446 677.256 555.178 674.886 552.427 674.74C549.37 674.578 546.841 677.074 546.841 680.177C546.841 680.413 546.881 680.827 546.923 681.217C547.015 682.034 547.023 682.863 546.944 683.683C546.543 687.869 544.974 691.86 542.41 695.169L541.983 695.721C541.041 696.699 540.456 698.039 540.445 699.52C540.427 702.395 542.663 704.84 545.462 704.992C548.521 705.157 551.05 702.661 551.05 699.555C551.05 699.433 551.04 699.311 551.032 699.19L551.05 699.198L551.032 698.358C550.921 693.246 552.559 688.256 555.658 684.252C555.658 684.252 557.446 682.649 557.446 680.08V680.082Z" fill="#FE0013"/>
<path d="M555.658 684.252C555.658 684.252 557.446 682.649 557.446 680.079C557.446 677.965 556.174 676.107 554.384 675.244C554.378 675.244 554.373 675.238 554.368 675.235C554.357 675.23 554.344 675.227 554.334 675.222C552.203 674.269 549.584 674.911 548.091 676.838C546.187 679.3 546.696 682.86 549.157 684.663C549.344 684.799 549.695 685.01 550.029 685.199C550.731 685.597 551.393 686.071 551.997 686.613C552.469 687.035 552.917 687.482 553.35 687.942C553.993 686.643 554.761 685.402 555.655 684.249L555.658 684.252Z" fill="#FF7A00"/>
<path d="M552.295 682.606C553.727 682.606 554.887 681.414 554.887 679.944C554.887 678.474 553.727 677.282 552.295 677.282C550.863 677.282 549.702 678.474 549.702 679.944C549.702 681.414 550.863 682.606 552.295 682.606Z" fill="white"/>
<path d="M545.894 702.122C547.326 702.122 548.487 700.93 548.487 699.46C548.487 697.99 547.326 696.799 545.894 696.799C544.462 696.799 543.302 697.99 543.302 699.46C543.302 700.93 544.462 702.122 545.894 702.122Z" fill="white"/>
<path d="M566.969 692.407C566.871 692.337 566.771 692.274 566.668 692.209L566.684 692.199L566.009 691.725C564.788 690.872 563.67 689.895 562.657 688.817C561.99 690.203 561.18 691.522 560.233 692.748C560.233 692.748 558.445 694.351 558.445 696.921C558.445 696.945 558.448 696.969 558.448 696.996C558.456 697.024 558.464 697.051 558.471 697.08L558.661 697.757C558.888 699.114 559.608 700.381 560.779 701.25C561.729 701.954 562.847 702.282 563.954 702.265C566.787 702.152 569.047 699.761 569.047 696.826C569.047 696.59 569.008 696.176 568.965 695.786C568.939 695.559 568.923 695.331 568.91 695.101C568.567 694.053 567.913 693.1 566.969 692.41V692.407Z" fill="#D2D500"/>
<path d="M563.896 699.322C565.328 699.322 566.489 698.131 566.489 696.661C566.489 695.191 565.328 693.999 563.896 693.999C562.465 693.999 561.304 695.191 561.304 696.661C561.304 698.131 562.465 699.322 563.896 699.322Z" fill="white"/>
<path d="M569.997 680.201C571.428 680.201 572.589 679.01 572.589 677.54C572.589 676.07 571.428 674.878 569.997 674.878C568.565 674.878 567.404 676.07 567.404 677.54C567.404 679.01 568.565 680.201 569.997 680.201Z" fill="white"/>
</g>
<path d="M609.522 543.375H510.173V813.655H609.522V543.375Z" stroke="#263238" stroke-miterlimit="10"/>
<path d="M559.847 623.271C587.282 623.271 609.522 589.221 609.522 547.218C609.522 505.215 587.282 471.166 559.847 471.166C532.413 471.166 510.173 505.215 510.173 547.218C510.173 589.221 532.413 623.271 559.847 623.271Z" fill="white" stroke="#263238" stroke-linecap="round" stroke-linejoin="round"/>
<path d="M571.452 523.341H548.219C546.127 523.341 544.431 525.04 544.431 527.135V544.028C544.431 546.123 546.127 547.822 548.219 547.822H571.452C573.544 547.822 575.239 546.123 575.239 544.028V527.135C575.239 525.04 573.544 523.341 571.452 523.341Z" fill="#E3FFCB" stroke="#263238" stroke-linecap="round" stroke-linejoin="round"/>
<path d="M576.856 592.53C576.856 583.13 569.256 575.493 559.847 575.493C550.439 575.493 542.839 583.105 542.839 592.53C542.839 601.955 550.439 609.568 559.847 609.568C569.256 609.568 576.856 601.955 576.856 592.53Z" fill="#263238" stroke="#263238" stroke-linecap="round" stroke-linejoin="round"/>
<path opacity="0.2" d="M568.34 592.53C568.34 587.818 564.528 584.024 559.848 584.024C555.167 584.024 551.355 587.842 551.355 592.53C551.355 597.219 555.167 601.037 559.848 601.037C564.528 601.037 568.34 597.219 568.34 592.53Z" fill="white"/>
<path d="M565.155 495.67C565.155 492.722 562.767 490.354 559.847 490.354C556.928 490.354 554.54 492.746 554.54 495.67C554.54 498.595 556.928 500.987 559.847 500.987C562.767 500.987 565.155 498.595 565.155 495.67Z" fill="#263238" stroke="#263238" stroke-linecap="round" stroke-linejoin="round"/>
<path d="M623.177 628.394H614.371V643.305H623.177V628.394Z" fill="#263238" stroke="#263238" stroke-linecap="round" stroke-linejoin="round"/>
<path d="M609.522 763.872H510.173V813.655H609.522V763.872Z" fill="#7CCE37" stroke="#263238" stroke-linecap="round" stroke-linejoin="round"/>
<path d="M1377.24 796.86H446.651V814.96H1377.24V796.86Z" fill="white" stroke="#263238" stroke-linecap="round" stroke-linejoin="round"/>
<path d="M1377.24 810.683H446.651V819.19H1377.24V810.683Z" fill="#263238" stroke="#263238" stroke-linecap="round" stroke-linejoin="round"/>
<g filter="url(#filter1_d_101_2)">
<path d="M1095.91 999.794L1110.84 959.555C1111.29 958.336 1111.06 956.967 1110.23 955.964L1082.68 922.82C1081.85 921.817 1080.54 921.331 1079.26 921.545L1036.79 928.639C1035.5 928.853 1034.43 929.737 1033.98 930.956L1019.05 971.195C1018.59 972.414 1018.83 973.783 1019.66 974.786L1047.2 1007.93C1048.04 1008.93 1049.34 1009.42 1050.63 1009.2L1093.1 1002.11C1094.39 1001.9 1095.46 1001.01 1095.91 999.795L1095.91 999.794Z" fill="#3F7115" stroke="#3F7115" stroke-width="3" stroke-miterlimit="10"/>
<path d="M1086.03 1002.07L1101.44 960.536C1101.98 959.084 1101.71 957.457 1100.73 956.268L1072.78 922.232C1071.81 921.043 1070.27 920.472 1068.75 920.733L1025.39 928.234C1023.88 928.495 1022.61 929.551 1022.07 931.003L1006.66 972.538C1006.12 973.99 1006.39 975.616 1007.37 976.805L1035.32 1010.84C1036.3 1012.03 1037.83 1012.6 1039.35 1012.34L1082.71 1004.84C1084.23 1004.58 1085.49 1003.52 1086.03 1002.07L1086.03 1002.07Z" fill="white" stroke="#7CCE37" stroke-width="2" stroke-miterlimit="10"/>
<path opacity="0.28" d="M1080.82 931.801L1006.99 976.112L1016.57 987.816L1089.6 942.494L1080.82 931.801Z" fill="#7CCE37"/>
<path opacity="0.28" d="M1095.25 949.501L1022.67 995.437L1026.42 1000L1098.8 953.916L1095.25 949.501Z" fill="#7CCE37"/>
<path d="M1076.53 991.643L1087.53 962C1088.04 960.645 1087.78 959.125 1086.87 958.015L1066.92 933.725C1066.01 932.614 1064.58 932.08 1063.16 932.326L1032.22 937.678C1030.8 937.924 1029.62 938.908 1029.12 940.263L1018.12 969.907C1017.61 971.262 1017.87 972.782 1018.78 973.891L1038.73 998.182C1039.64 999.293 1041.07 999.827 1042.49 999.581L1073.43 994.228C1074.85 993.983 1076.03 992.998 1076.53 991.643Z" fill="#3F7115"/>
<path d="M1087.37 959.062L1067.7 935.104C1066.52 933.671 1064.67 932.983 1062.85 933.299L1038.14 937.574C1037.61 937.665 1037.12 937.945 1036.78 938.37C1036.15 939.161 1035.63 940.059 1035.27 941.04L1025.55 967.22C1024.81 969.224 1025.18 971.469 1026.53 973.111L1045.49 996.193C1046.82 997.81 1048.9 998.586 1050.96 998.23L1075.29 994.023C1075.82 993.932 1076.31 993.652 1076.65 993.227C1077.28 992.436 1077.8 991.538 1078.16 990.557L1088.14 963.671C1088.72 962.105 1088.43 960.348 1087.37 959.063L1087.37 959.062Z" fill="white" stroke="#7CCE37" stroke-miterlimit="10"/>
</g>
<g clip-path="url(#clip2_101_2)">
<path d="M1051.56 974.313C1050.57 976.865 1051.8 979.801 1054.24 980.9C1056.96 982.121 1060.12 980.756 1061.21 977.954C1061.29 977.741 1061.4 977.354 1061.5 976.987C1061.7 976.216 1061.98 975.465 1062.34 974.752C1064.17 971.114 1066.99 968.062 1070.47 965.975L1071.05 965.627C1072.25 965.076 1073.25 964.072 1073.78 962.738C1074.8 960.148 1073.63 957.155 1071.14 956.035C1068.43 954.81 1065.26 956.175 1064.17 958.979C1064.13 959.089 1064.1 959.203 1064.06 959.316L1064.05 959.302L1063.77 960.066C1062.08 964.721 1058.85 968.651 1054.64 971.177C1054.64 971.177 1052.46 971.996 1051.56 974.316L1051.56 974.313Z" fill="#7BCF33"/>
<path d="M1055.74 954.5L1055.64 954.344C1054.33 952.311 1051.56 951.712 1049.45 952.975L1055.74 954.5ZM1055.74 954.5C1056.26 955.381 1056.4 956.297 1056.4 957.017C1056.41 957.398 1056.37 957.718 1056.33 957.941C1056.32 958.053 1056.3 958.139 1056.29 958.196C1056.28 958.224 1056.27 958.245 1056.27 958.258L1056.27 958.271L1056.27 958.272L1056.27 958.272L1056.27 958.273L1056.27 958.273L1056.27 958.273L1056.26 958.315L1056.25 958.359C1055.77 963.393 1057.03 968.418 1059.82 972.561L1055.74 954.5ZM1048.41 960.46L1048.41 960.46C1048.93 961.093 1049.39 961.784 1049.76 962.517L1049.76 962.517C1051.63 966.186 1052.43 970.349 1052.02 974.514L1048.41 960.46ZM1048.41 960.46C1048.18 960.172 1047.95 959.878 1047.84 959.715M1048.41 960.46L1047.84 959.715M1047.84 959.715C1046.4 957.461 1047.1 954.384 1049.45 952.975L1047.84 959.715ZM1059.82 972.562L1059.86 972.624L1059.81 972.637L1060.26 973.25C1060.27 973.259 1060.27 973.267 1060.28 973.276C1060.35 973.363 1060.4 973.433 1060.45 973.508C1061.89 975.758 1061.18 978.84 1058.83 980.248C1056.7 981.527 1053.9 980.864 1052.58 978.775L1052.58 978.775C1051.9 977.694 1051.71 976.43 1051.95 975.245L1051.96 975.219L1051.96 975.192L1052.02 974.514L1059.82 972.562Z" fill="white" stroke="#7CCE37"/>
<path d="M1053.29 961.429L1053.29 961.429L1053.29 961.429L1053.29 961.429L1053.29 961.43L1053.24 961.445L1053.21 961.468C1048.89 964.055 1045.59 968.076 1043.86 972.838L1043.86 972.838L1043.85 972.865L1043.81 972.824L1043.56 973.609C1043.56 973.636 1043.55 973.662 1043.54 973.687C1043.51 973.774 1043.49 973.844 1043.46 973.914C1042.48 976.463 1039.61 977.685 1037.16 976.584C1034.93 975.578 1033.86 972.871 1034.79 970.52C1035.27 969.31 1036.18 968.4 1037.26 967.901L1037.28 967.89L1037.31 967.876L1037.89 967.527C1037.89 967.527 1037.89 967.527 1037.89 967.527C1041.45 965.391 1044.34 962.268 1046.21 958.546C1046.58 957.802 1046.88 957.019 1047.09 956.215C1047.19 955.842 1047.29 955.482 1047.36 955.3C1048.35 952.754 1051.21 951.531 1053.66 952.63C1055.86 953.619 1056.97 956.275 1056.08 958.579C1055.67 959.627 1054.97 960.342 1054.37 960.798C1054.06 961.026 1053.79 961.186 1053.59 961.289C1053.49 961.34 1053.41 961.376 1053.36 961.399C1053.33 961.411 1053.31 961.419 1053.3 961.424L1053.29 961.429L1053.29 961.429Z" fill="#7BCF33" stroke="#7CCE37"/>
<path d="M1053.81 957.556C1053.39 958.636 1052.2 959.163 1051.17 958.763C1050.14 958.363 1049.62 957.175 1050.04 956.095C1050.45 955.016 1051.64 954.489 1052.67 954.889C1053.7 955.289 1054.22 956.477 1053.81 957.556Z" fill="white" stroke="white"/>
<path d="M1041.17 972.928C1040.75 974.007 1039.57 974.534 1038.54 974.134C1037.51 973.734 1036.98 972.546 1037.4 971.467C1037.82 970.387 1039.01 969.861 1040.04 970.26C1041.07 970.66 1041.59 971.848 1041.17 972.928Z" fill="white" stroke="white"/>
<path d="M1058.48 976.727C1058.06 977.806 1056.87 978.333 1055.84 977.933C1054.81 977.534 1054.29 976.345 1054.71 975.266C1055.13 974.186 1056.31 973.66 1057.34 974.059C1058.37 974.459 1058.89 975.647 1058.48 976.727Z" fill="white" stroke="#7CCE37"/>
<path d="M1067.88 963.279C1069.18 963.783 1070.65 963.115 1071.17 961.787C1071.68 960.46 1071.04 958.976 1069.75 958.473C1068.45 957.97 1066.98 958.638 1066.46 959.965C1065.95 961.292 1066.58 962.776 1067.88 963.279Z" fill="white"/>
</g>
<g filter="url(#filter2_d_101_2)">
<path d="M1198.33 186.134L1213.26 145.895C1213.71 144.676 1213.48 143.306 1212.64 142.303L1185.1 109.159C1184.27 108.156 1182.96 107.67 1181.68 107.885L1139.2 114.979C1137.92 115.193 1136.85 116.076 1136.4 117.295L1121.46 157.534C1121.01 158.753 1121.25 160.122 1122.08 161.126L1149.62 194.27C1150.46 195.273 1151.76 195.759 1153.05 195.544L1195.52 188.451C1196.81 188.237 1197.88 187.354 1198.33 186.135L1198.33 186.134Z" fill="#3F7115" stroke="#3F7115" stroke-width="3" stroke-miterlimit="10"/>
<path d="M1188.45 188.41L1203.86 146.875C1204.4 145.423 1204.13 143.797 1203.15 142.607L1175.2 108.571C1174.22 107.383 1172.69 106.811 1171.17 107.072L1127.81 114.573C1126.3 114.835 1125.03 115.89 1124.49 117.342L1109.08 158.877C1108.54 160.329 1108.81 161.956 1109.79 163.145L1137.74 197.181C1138.72 198.37 1140.25 198.941 1141.77 198.68L1185.13 191.18C1186.65 190.918 1187.91 189.863 1188.45 188.411L1188.45 188.41Z" fill="white" stroke="#7CCE37" stroke-width="2" stroke-miterlimit="10"/>
<path opacity="0.28" d="M1183.24 118.14L1109.41 162.451L1118.99 174.155L1192.02 128.834L1183.24 118.14Z" fill="#7CCE37"/>
<path opacity="0.28" d="M1197.67 135.84L1125.09 181.777L1128.83 186.34L1201.22 140.256L1197.67 135.84Z" fill="#7CCE37"/>
<path d="M1178.95 177.983L1189.95 148.34C1190.45 146.984 1190.2 145.465 1189.29 144.355L1169.34 120.065C1168.43 118.953 1167 118.42 1165.58 118.665L1134.63 124.018C1133.22 124.264 1132.04 125.248 1131.54 126.603L1120.54 156.246C1120.03 157.601 1120.29 159.121 1121.2 160.231L1141.15 184.521C1142.06 185.633 1143.49 186.166 1144.91 185.921L1175.85 180.568C1177.27 180.322 1178.45 179.338 1178.95 177.983Z" fill="#3F7115"/>
<path d="M1189.79 145.402L1170.12 121.444C1168.94 120.011 1167.09 119.323 1165.27 119.639L1140.56 123.913C1140.02 124.005 1139.54 124.285 1139.2 124.71C1138.57 125.501 1138.05 126.398 1137.69 127.38L1127.97 153.56C1127.23 155.564 1127.6 157.808 1128.95 159.45L1147.91 182.532C1149.23 184.149 1151.32 184.926 1153.38 184.57L1177.71 180.363C1178.24 180.271 1178.73 179.991 1179.07 179.566C1179.7 178.776 1180.22 177.878 1180.58 176.897L1190.56 150.01C1191.14 148.444 1190.85 146.687 1189.79 145.403L1189.79 145.402Z" fill="white" stroke="#7CCE37" stroke-miterlimit="10"/>
</g>
<g clip-path="url(#clip3_101_2)">
<path d="M1153.98 160.652C1152.99 163.205 1154.22 166.141 1156.66 167.239C1159.37 168.46 1162.54 167.095 1163.63 164.294C1163.71 164.081 1163.82 163.693 1163.92 163.326C1164.12 162.556 1164.4 161.805 1164.76 161.092C1166.59 157.453 1169.41 154.401 1172.89 152.315L1173.47 151.966C1174.67 151.416 1175.67 150.411 1176.2 149.078C1177.22 146.488 1176.05 143.495 1173.56 142.374C1170.85 141.15 1167.68 142.515 1166.59 145.319C1166.55 145.429 1166.52 145.543 1166.48 145.656L1166.47 145.642L1166.19 146.406C1164.5 151.06 1161.27 154.99 1157.06 157.517C1157.06 157.517 1154.88 158.336 1153.98 160.656L1153.98 160.652Z" fill="#7BCF33"/>
<path d="M1158.16 140.839L1158.06 140.684C1156.75 138.651 1153.98 138.052 1151.87 139.315L1158.16 140.839ZM1158.16 140.839C1158.67 141.721 1158.82 142.636 1158.82 143.357C1158.82 143.737 1158.79 144.058 1158.75 144.281C1158.74 144.392 1158.72 144.479 1158.7 144.536C1158.7 144.564 1158.69 144.585 1158.69 144.598L1158.69 144.611L1158.69 144.612L1158.69 144.612L1158.69 144.612L1158.69 144.613L1158.69 144.613L1158.67 144.655L1158.67 144.699C1158.19 149.732 1159.45 154.758 1162.24 158.9L1158.16 140.839ZM1150.83 146.799L1150.83 146.8C1151.35 147.433 1151.81 148.123 1152.18 148.857L1152.18 148.857C1154.05 152.525 1154.84 156.688 1154.44 160.853L1150.83 146.799ZM1150.83 146.799C1150.6 146.512 1150.37 146.217 1150.26 146.054M1150.83 146.799L1150.26 146.054M1150.26 146.054C1148.82 143.8 1149.52 140.724 1151.87 139.315L1150.26 146.054ZM1162.24 158.901L1162.28 158.964L1162.23 158.977L1162.68 159.59C1162.69 159.598 1162.69 159.607 1162.7 159.616C1162.76 159.703 1162.82 159.773 1162.87 159.847C1164.31 162.098 1163.6 165.179 1161.25 166.587C1159.11 167.867 1156.32 167.204 1155 165.115L1155 165.114C1154.32 164.034 1154.13 162.77 1154.37 161.585L1154.38 161.558L1154.38 161.531L1154.44 160.854L1162.24 158.901Z" fill="white" stroke="#7CCE37"/>
<path d="M1155.71 147.769L1155.71 147.769L1155.71 147.769L1155.7 147.769L1155.7 147.769L1155.66 147.785L1155.62 147.808C1151.31 150.394 1148.01 154.416 1146.28 159.177L1146.28 159.177L1146.27 159.205L1146.23 159.164L1145.98 159.948C1145.97 159.976 1145.97 160.002 1145.96 160.026C1145.93 160.114 1145.91 160.184 1145.88 160.254C1144.89 162.803 1142.03 164.025 1139.58 162.924C1137.35 161.917 1136.28 159.211 1137.21 156.86C1137.69 155.649 1138.59 154.74 1139.68 154.24L1139.7 154.229L1139.73 154.215L1140.31 153.867C1140.31 153.867 1140.31 153.867 1140.31 153.867C1143.87 151.731 1146.76 148.608 1148.63 144.886C1149 144.142 1149.29 143.358 1149.51 142.555C1149.61 142.181 1149.71 141.822 1149.78 141.64C1150.77 139.094 1153.63 137.871 1156.08 138.969C1158.28 139.959 1159.39 142.615 1158.5 144.919C1158.09 145.967 1157.39 146.682 1156.78 147.138C1156.48 147.365 1156.21 147.526 1156.01 147.628C1155.91 147.68 1155.83 147.716 1155.78 147.739C1155.75 147.751 1155.73 147.759 1155.72 147.764L1155.71 147.768L1155.71 147.769Z" fill="#7BCF33" stroke="#7CCE37"/>
<path d="M1156.22 143.896C1155.81 144.975 1154.62 145.502 1153.59 145.102C1152.56 144.703 1152.04 143.515 1152.46 142.435C1152.87 141.356 1154.06 140.829 1155.09 141.229C1156.12 141.628 1156.64 142.817 1156.22 143.896Z" fill="white" stroke="white"/>
<path d="M1143.59 159.267C1143.17 160.347 1141.99 160.873 1140.96 160.474C1139.92 160.074 1139.4 158.886 1139.82 157.806C1140.24 156.727 1141.43 156.2 1142.46 156.6C1143.49 157 1144.01 158.188 1143.59 159.267Z" fill="white" stroke="white"/>
</g>
<g clip-path="url(#clip4_101_2)">
<path d="M719.328 791.835C693.548 766.291 693.548 724.877 719.328 699.333C745.108 673.79 786.906 673.79 812.686 699.333C838.466 724.877 838.466 766.291 812.686 791.835C786.906 817.379 745.108 817.379 719.328 791.835Z" fill="#243239"/>
<path d="M717.037 745.592C717.037 772.389 738.951 794.102 765.997 794.102C830.945 791.552 830.928 699.614 765.997 697.081C738.951 697.081 717.037 718.794 717.037 745.592Z" stroke="white" stroke-width="2.66" stroke-miterlimit="10"/>
<path d="M733.888 789.152C742.897 795.68 753.99 799.522 765.997 799.522C796.058 799.522 820.428 775.376 820.428 745.591C820.428 735.205 817.464 725.506 812.333 717.267" stroke="white" stroke-width="0.5" stroke-miterlimit="10"/>
<path d="M763.88 770.426C750.038 770.426 738.816 759.307 738.816 745.591C738.816 731.876 750.038 720.757 763.88 720.757C777.723 720.757 788.945 731.876 788.945 745.591C788.945 759.307 777.723 770.426 763.88 770.426Z" fill="white"/>
<path d="M938.129 620.262L970.526 667.279L977.368 661.843L952.625 627.242L993.558 653.62L1001.09 649.19L938.129 620.262Z" fill="#243239"/>
<path d="M1029.65 659.46L1073.82 722.083" stroke="#243239" stroke-width="7.62" stroke-miterlimit="10"/>
<path d="M1038.08 653.614L1039.26 655.291L1022.39 666.986L1021.2 665.308L1038.08 653.614Z" fill="url(#paint0_linear_101_2)"/>
<path d="M1076.15 707.562L1078.61 711.055L1061.73 722.741L1059.26 719.248L1076.15 707.562Z" fill="url(#paint1_linear_101_2)"/>
<path d="M1071.24 700.606L1073.69 704.087L1056.81 715.77L1054.36 712.289L1071.24 700.606Z" fill="#616A70"/>
<path d="M1066.32 693.657L1068.79 697.15L1051.91 708.839L1049.44 705.346L1066.32 693.657Z" fill="#616A70"/>
<path d="M1061.4 686.672L1063.86 690.166L1046.99 701.854L1044.52 698.361L1061.4 686.672Z" fill="#616A70"/>
<path d="M1056.49 679.708L1058.95 683.202L1042.07 694.891L1039.61 691.397L1056.49 679.708Z" fill="#616A70"/>
<path d="M1051.56 672.75L1054.02 676.23L1037.13 687.916L1034.68 684.436L1051.56 672.75Z" fill="#616A70"/>
<path d="M1046.64 665.74L1049.1 669.234L1032.22 680.92L1029.76 677.426L1046.64 665.74Z" fill="url(#paint2_linear_101_2)"/>
<path d="M1041.72 658.755L1044.18 662.249L1027.3 673.935L1024.84 670.441L1041.72 658.755Z" fill="url(#paint3_linear_101_2)"/>
<path d="M1081.08 714.567L1082.26 716.245L1065.37 727.926L1064.19 726.247L1081.08 714.567Z" fill="url(#paint4_linear_101_2)"/>
<path d="M763.88 758.814C756.8 758.814 751.06 753.127 751.06 746.112C751.06 739.096 756.8 733.409 763.88 733.409C770.961 733.409 776.701 739.096 776.701 746.112C776.701 753.127 770.961 758.814 763.88 758.814Z" fill="#243239"/>
<path d="M764.541 746.414L804.509 688.12" stroke="#4F5B61" stroke-width="6.76" stroke-linecap="round" stroke-linejoin="round"/>
<path d="M789.944 728.509L771.078 716.612L806.693 669.108L818.294 676.424L789.944 728.509Z" fill="white" stroke="#243239" stroke-width="0.5" stroke-linecap="round" stroke-linejoin="round"/>
<path d="M1002.92 746.85L1113.99 748.377" stroke="#243239" stroke-width="1.13" stroke-miterlimit="10"/>
<path d="M1067.31 791.845C1041.53 766.302 1041.53 724.888 1067.31 699.344C1093.09 673.8 1134.89 673.8 1160.67 699.344C1186.45 724.888 1186.45 766.302 1160.67 791.845C1134.89 817.389 1093.09 817.389 1067.31 791.845Z" fill="#243239"/>
<path d="M1065.03 745.592C1065.03 772.389 1086.94 794.102 1113.99 794.102C1178.93 791.552 1178.92 699.614 1113.99 697.081C1086.94 697.081 1065.03 718.794 1065.03 745.592Z" stroke="white" stroke-width="2.66" stroke-miterlimit="10"/>
<path d="M1081.88 789.152C1090.89 795.68 1101.98 799.522 1113.99 799.522C1144.05 799.522 1168.42 775.376 1168.42 745.591C1168.42 735.205 1165.45 725.506 1160.32 717.267" stroke="white" stroke-width="0.5" stroke-miterlimit="10"/>
<path d="M1111.85 770.426C1098.01 770.426 1086.79 759.307 1086.79 745.591C1086.79 731.876 1098.01 720.757 1111.85 720.757C1125.69 720.757 1136.92 731.876 1136.92 745.591C1136.92 759.307 1125.69 770.426 1111.85 770.426Z" fill="white"/>
<path d="M1082.77 654.073H1111.51L1163.08 686.257L1174.5 688.523V685.351L1166.28 682.65L1126.11 649.19L1148.48 646.472L1143.91 641.958H1095.09L1082.77 654.073Z" fill="#616A70" stroke="#243239" stroke-width="0.5" stroke-linecap="round" stroke-linejoin="round"/>
<path d="M1137.98 575.493L1134.78 593.582L1008.39 654.073L938.129 620.262L949.34 600.142L949.984 599.001L1018.89 592.222L1031.21 582.725L1109.01 577.473L1137.98 575.493Z" fill="#243239"/>
<path d="M985.124 657.782L970.526 667.279L975.082 686.257L932.574 733.51L999.266 727.402L1033.03 684.462L1065.89 667.732L985.124 657.782Z" fill="#243239"/>
<path d="M1119.93 749.233C1119.93 749.233 1119.93 749.233 1119.93 749.266C1118.64 752.018 1115.88 753.747 1112.89 753.747C1112.48 753.747 1112.09 753.713 1111.68 753.646L1018.45 739.618L998.368 758.143H970.543L990.171 728.308L997.589 725.405L1039.89 708.86L1115.76 738.846C1119.9 740.49 1121.81 745.222 1119.96 749.233H1119.93Z" fill="#243239"/>
<path d="M854.654 590.712L828.912 632.612C828.912 632.612 841.072 691.392 886.408 726.647L987.106 721.529L963.684 744.434H889.541L833.485 708.86L801.85 614.775L854.671 590.712H854.654Z" fill="#243239"/>
<path d="M779.783 649.19C779.783 649.19 742.373 663.202 737.8 675.871H792.552L779.783 649.19Z" fill="#FD009C" stroke="#243239" stroke-width="0.5" stroke-linecap="round" stroke-linejoin="round"/>
<path d="M846.559 542.789L845.035 556.951L869.981 567.505L875.146 566.901L892.268 535.54C894.977 530.556 892.742 524.347 887.441 522.216L871.183 515.655L819.767 545.792L825.847 550.306L846.525 542.772L846.559 542.789Z" fill="#243239"/>
<path d="M819.784 545.809L839.26 518.676L872.081 505.688C875.688 504.262 878.618 508.843 875.773 511.46L871.2 515.672L819.784 545.809Z" fill="#616A70" stroke="#243239" stroke-width="0.5" stroke-linecap="round" stroke-linejoin="round"/>
<path d="M819.784 545.809L825.864 550.323L846.559 542.789L875.146 537.973L883.665 525.908L868.338 517.333L819.784 545.809Z" fill="#FD009C" stroke="#243239" stroke-width="0.5" stroke-linecap="round" stroke-linejoin="round"/>
<path style="mix-blend-mode:multiply" d="M879.211 523.424L870.828 535.288L842.241 540.12L822.037 547.47L825.864 550.323L846.559 542.788L875.146 537.973L883.665 525.908L879.211 523.424Z" fill="url(#paint5_linear_101_2)"/>
<g style="mix-blend-mode:overlay" opacity="0.5">
<path d="M1109.01 577.473L1013.86 606.687L949.34 600.142L949.984 599.001L1018.89 592.222L1031.21 582.725L1109.01 577.473Z" fill="white"/>
</g>
<path d="M1093.56 603.985C1092.82 601.3 1095.7 590.729 1095.7 590.729L1134.02 567.522L1145.59 564.502L1125.81 593.128L1093.56 603.985Z" fill="white" stroke="#243239" stroke-width="0.5" stroke-linecap="round" stroke-linejoin="round"/>
<path d="M877.517 534.617L884.274 546.312L895.469 535.506L880.853 529.901L877.517 534.617Z" fill="#616A70" stroke="#243239" stroke-width="0.5" stroke-linecap="round" stroke-linejoin="round"/>
<path d="M897.365 540.574C897.365 544.852 893.86 548.343 889.524 548.343C885.189 548.343 881.683 544.869 881.683 540.574C881.683 536.278 885.189 532.804 889.524 532.804C893.86 532.804 897.365 536.278 897.365 540.574Z" fill="white" stroke="#243239" stroke-width="0.5" stroke-linecap="round" stroke-linejoin="round"/>
<path d="M970.526 667.279L1063.16 675.871L1148.48 605.328L1142.1 584.99C1142.1 584.99 1005.21 624.776 970.526 667.279Z" fill="#FD009C" stroke="#243239" stroke-width="0.5" stroke-linecap="round" stroke-linejoin="round"/>
<g style="mix-blend-mode:overlay" opacity="0.6">
<path d="M1144.57 592.877L1142.1 584.99C1142.1 584.99 1005.21 624.776 970.526 667.279L986.835 668.79C1018.33 634.81 1112.07 603.113 1144.57 592.877Z" fill="white"/>
</g>
<path d="M1142.1 584.99C1142.1 584.99 1164.23 592.323 1148.48 605.328L1142.1 584.99Z" fill="white" stroke="#243239" stroke-width="0.5" stroke-linecap="round" stroke-linejoin="round"/>
<g style="mix-blend-mode:overlay">
<path d="M1119.93 749.233L1039.27 718.945L1001.08 730.674L997.555 725.405L1039.86 708.86L1115.73 738.846C1119.86 740.49 1121.78 745.222 1119.93 749.233Z" fill="white"/>
</g>
<path d="M765.184 647.831C765.184 647.831 796.6 700.705 820.123 721.764C826.592 727.553 832.215 734.215 836.381 741.799C840.276 748.88 843.578 756.935 842.291 762.22L983.295 759.049L1013.86 713.391L976.911 720.623L970.983 726.949L881.09 735.087C881.09 735.087 815.838 664.108 816.296 635.162L835.924 598.985L765.201 647.814L765.184 647.831Z" fill="#FD009C" stroke="#243239" stroke-width="0.5" stroke-linecap="round" stroke-linejoin="round"/>
<g style="mix-blend-mode:overlay" opacity="0.7">
<path d="M816.296 638.82C815.838 667.749 881.09 738.745 881.09 738.745L970.983 730.607L976.911 724.281L1011.07 717.602L1013.88 713.407L976.928 720.64L971 726.966L881.107 735.104C881.107 735.104 820.445 669.108 816.516 638.451L816.312 638.837L816.296 638.82Z" fill="white"/>
<path d="M832.757 604.824L835.924 599.001L765.201 647.831C765.201 647.831 765.76 648.771 766.76 650.399L832.774 604.824H832.757Z" fill="white"/>
<path d="M842.291 762.22H842.512C842.495 761.935 842.478 761.667 842.444 761.381C842.41 761.667 842.359 761.952 842.291 762.22Z" fill="white"/>
</g>
<path d="M845.949 553.796L875.146 566.901L866.018 587.239L773.381 649.174L760.155 645.549C760.155 645.549 797.565 576.382 821.749 565.072L845.932 553.763L845.949 553.796Z" fill="#FD009C" stroke="#243239" stroke-width="0.5" stroke-linecap="round" stroke-linejoin="round"/>
<path style="mix-blend-mode:multiply" d="M869.303 564.267L860.785 583.245L768.148 645.18L761.391 643.334C760.595 644.76 760.172 645.566 760.172 645.566L773.398 649.19L866.035 587.255L875.163 566.918L869.303 564.284V564.267Z" fill="url(#paint6_linear_101_2)"/>
</g>
<g filter="url(#filter3_d_101_2)">
<path d="M582.661 180.842L619.933 133.911C621.063 132.489 621.345 130.57 620.672 128.877L598.496 72.939C597.824 71.2458 596.301 70.0344 594.501 69.7609L535.051 60.7529C533.251 60.4794 531.446 61.1874 530.317 62.6091L493.045 109.54C491.916 110.962 491.634 112.881 492.306 114.575L514.483 170.512C515.155 172.206 516.678 173.417 518.477 173.691L577.925 182.699C579.724 182.972 581.529 182.265 582.658 180.843L582.661 180.842Z" fill="#3F7115" stroke="#3F7115" stroke-width="3" stroke-miterlimit="10"/>
<path d="M568.558 179.577L607.031 131.135C608.376 129.441 608.724 127.165 607.941 125.162L585.607 67.8625C584.826 65.8613 583.036 64.4369 580.91 64.1256L520.103 55.272C517.979 54.9623 515.841 55.8137 514.496 57.5073L476.024 105.95C474.679 107.644 474.33 109.919 475.113 111.922L497.448 169.222C498.228 171.223 500.018 172.648 502.144 172.959L562.953 181.814C565.077 182.124 567.215 181.272 568.56 179.579L568.558 179.577Z" fill="white" stroke="#7CCE37" stroke-width="2" stroke-miterlimit="10"/>
<path opacity="0.28" d="M592.123 84.05L474.913 110.838L482.547 130.526L599.141 102.052L592.123 84.05Z" fill="#7CCE37"/>
<path opacity="0.28" d="M603.6 113.803L487.338 143.289L490.331 150.97L606.398 121.204L603.6 113.803Z" fill="#7CCE37"/>
<path d="M560.477 161.618L587.935 127.045C589.19 125.464 589.514 123.338 588.785 121.469L572.845 80.576C572.117 78.7057 570.445 77.3752 568.461 77.0874L525.063 70.7675C523.079 70.4797 521.084 71.2739 519.828 72.8544L492.371 107.428C491.116 109.008 490.791 111.135 491.52 113.003L507.46 153.897C508.188 155.767 509.86 157.097 511.845 157.385L555.242 163.705C557.227 163.993 559.222 163.199 560.477 161.618Z" fill="#3F7115"/>
<path d="M588.995 123.076L573.274 82.742C572.333 80.3301 570.177 78.6145 567.619 78.2429L532.969 73.1975C532.223 73.0884 531.456 73.2488 530.821 73.666C529.638 74.4408 528.566 75.409 527.657 76.5535L503.407 107.088C501.55 109.425 501.073 112.567 502.149 115.33L517.296 154.189C518.358 156.912 520.79 158.847 523.68 159.269L557.796 164.239C558.542 164.348 559.309 164.187 559.944 163.77C561.127 162.995 562.2 162.027 563.109 160.883L588.013 129.525C589.463 127.698 589.839 125.24 588.997 123.078L588.995 123.076Z" fill="white" stroke="#7CCE37" stroke-miterlimit="10"/>
</g>
<g clip-path="url(#clip5_101_2)">
<path d="M535.952 128.117C533.538 131.068 533.893 135.488 536.653 138C539.719 140.791 544.504 140.354 547.154 137.114C547.355 136.869 547.667 136.402 547.956 135.959C548.557 135.026 549.257 134.154 550.04 133.365C554.036 129.339 559.09 126.518 564.604 125.262L565.523 125.052C567.348 124.841 569.107 123.944 570.383 122.407C572.858 119.421 572.601 114.949 569.796 112.391C566.729 109.594 561.945 110.031 559.292 113.274C559.188 113.401 559.095 113.537 559 113.671L558.987 113.647L558.29 114.539C554.04 119.971 548.061 123.777 541.391 125.3C541.391 125.3 538.147 125.439 535.953 128.122L535.952 128.117Z" fill="#7BCF33"/>
<path d="M542.353 98.7613C545.786 97.9771 549.311 100.029 550.187 103.393L550.252 103.646C550.567 105.081 550.351 106.393 550.038 107.372C549.873 107.889 549.683 108.308 549.536 108.596C549.462 108.74 549.399 108.85 549.355 108.923C549.334 108.96 549.317 108.987 549.306 109.004L549.294 109.022L549.293 109.025L549.292 109.025L549.292 109.025L549.292 109.025L549.292 109.026L549.268 109.062L549.25 109.103C546.448 115.517 545.947 122.67 547.838 129.319C547.838 129.32 547.838 129.32 547.838 129.32L547.944 129.696L547.88 129.69L548.123 130.414C548.128 130.428 548.133 130.443 548.137 130.457C548.185 130.6 548.226 130.721 548.26 130.847C549.229 134.562 546.889 138.444 543.061 139.316C539.572 140.108 536.058 137.958 535.187 134.517L535.187 134.516C534.735 132.738 535.038 130.929 535.899 129.424L535.912 129.401L535.923 129.376L536.302 128.507C538.621 123.199 539.371 117.383 538.483 111.752L538.483 111.752C538.307 110.632 538.008 109.535 537.599 108.485L537.599 108.484C537.41 108.001 537.232 107.503 537.159 107.23C536.192 103.512 538.528 99.6352 542.353 98.7613ZM542.353 98.7613L542.242 98.2749L542.353 98.7613Z" fill="white" stroke="#7CCE37"/>
<path d="M526.339 123.229L526.554 122.954L526.554 122.954C530.874 117.432 536.953 113.563 543.735 112.014L543.779 112.004L543.824 112.002L543.824 112.002L543.824 112.002L543.825 112.002L543.825 112.002L543.828 112.002L543.849 112.001C543.869 111.999 543.9 111.997 543.942 111.993C544.025 111.985 544.15 111.97 544.307 111.944C544.623 111.893 545.07 111.798 545.581 111.623C546.606 111.274 547.875 110.612 548.897 109.364C551.141 106.619 550.808 102.502 548.246 100.169C545.4 97.5788 540.945 97.9734 538.468 101.001C538.288 101.222 537.991 101.663 537.699 102.112C537.079 103.073 536.358 103.972 535.55 104.786C531.488 108.879 526.35 111.747 520.743 113.024L526.339 123.229ZM526.339 123.229L526.309 123.17L525.831 123.839C525.809 123.87 525.788 123.9 525.768 123.929C525.693 124.034 525.629 124.124 525.558 124.211C523.079 127.241 518.624 127.636 515.779 125.041C513.179 122.669 512.928 118.503 515.24 115.714L526.339 123.229ZM519.823 113.234L520.742 113.024L515.24 115.714C516.431 114.278 518.071 113.442 519.77 113.244L519.797 113.24L519.823 113.234Z" fill="#7BCF33" stroke="#7CCE37"/>
<path d="M546.331 107.027C545.244 108.356 543.323 108.558 542.043 107.511C540.763 106.465 540.581 104.541 541.668 103.212C542.755 101.883 544.676 101.681 545.956 102.728C547.236 103.774 547.418 105.698 546.331 107.027Z" fill="white" stroke="white"/>
<path d="M522.951 121.913C521.864 123.242 519.943 123.444 518.663 122.398C517.383 121.351 517.201 119.428 518.288 118.099C519.375 116.77 521.296 116.567 522.576 117.614C523.856 118.661 524.038 120.584 522.951 121.913Z" fill="white" stroke="white"/>
<path d="M544.22 134.432C543.133 135.761 541.212 135.963 539.932 134.916C538.652 133.87 538.47 131.946 539.557 130.617C540.644 129.288 542.565 129.086 543.845 130.133C545.125 131.18 545.307 133.103 544.22 134.432Z" fill="white" stroke="#7CCE37"/>
<path d="M562.342 120.572C563.844 121.8 566.079 121.552 567.334 120.017C568.589 118.482 568.39 116.242 566.888 115.014C565.387 113.786 563.152 114.035 561.897 115.569C560.641 117.104 560.841 119.344 562.342 120.572Z" fill="white"/>
</g>
<defs>
<filter id="filter0_d_101_2" x="162.826" y="585.004" width="149.181" height="135.733" filterUnits="userSpaceOnUse" color-interpolation-filters="sRGB">
<feFlood flood-opacity="0" result="BackgroundImageFix"/>
<feColorMatrix in="SourceAlpha" type="matrix" values="0 0 0 0 0 0 0 0 0 0 0 0 0 0 0 0 0 0 127 0" result="hardAlpha"/>
<feOffset dx="22" dy="22"/>
<feGaussianBlur stdDeviation="10"/>
<feComposite in2="hardAlpha" operator="out"/>
<feColorMatrix type="matrix" values="0 0 0 0 0.247059 0 0 0 0 0.443137 0 0 0 0 0.0823529 0 0 0 0.15 0"/>
<feBlend mode="normal" in2="BackgroundImageFix" result="effect1_dropShadow_101_2"/>
<feBlend mode="normal" in="SourceGraphic" in2="effect1_dropShadow_101_2" result="shape"/>
</filter>
<filter id="filter1_d_101_2" x="1005.39" y="919.67" width="149.181" height="135.733" filterUnits="userSpaceOnUse" color-interpolation-filters="sRGB">
<feFlood flood-opacity="0" result="BackgroundImageFix"/>
<feColorMatrix in="SourceAlpha" type="matrix" values="0 0 0 0 0 0 0 0 0 0 0 0 0 0 0 0 0 0 127 0" result="hardAlpha"/>
<feOffset dx="22" dy="22"/>
<feGaussianBlur stdDeviation="10"/>
<feComposite in2="hardAlpha" operator="out"/>
<feColorMatrix type="matrix" values="0 0 0 0 0.247059 0 0 0 0 0.443137 0 0 0 0 0.0823529 0 0 0 0.3 0"/>
<feBlend mode="normal" in2="BackgroundImageFix" result="effect1_dropShadow_101_2"/>
<feBlend mode="normal" in="SourceGraphic" in2="effect1_dropShadow_101_2" result="shape"/>
</filter>
<filter id="filter2_d_101_2" x="1107.81" y="106.01" width="149.181" height="135.733" filterUnits="userSpaceOnUse" color-interpolation-filters="sRGB">
<feFlood flood-opacity="0" result="BackgroundImageFix"/>
<feColorMatrix in="SourceAlpha" type="matrix" values="0 0 0 0 0 0 0 0 0 0 0 0 0 0 0 0 0 0 127 0" result="hardAlpha"/>
<feOffset dx="22" dy="22"/>
<feGaussianBlur stdDeviation="10"/>
<feComposite in2="hardAlpha" operator="out"/>
<feColorMatrix type="matrix" values="0 0 0 0 0.247059 0 0 0 0 0.443137 0 0 0 0 0.0823529 0 0 0 0.3 0"/>
<feBlend mode="normal" in2="BackgroundImageFix" result="effect1_dropShadow_101_2"/>
<feBlend mode="normal" in="SourceGraphic" in2="effect1_dropShadow_101_2" result="shape"/>
</filter>
<filter id="filter3_d_101_2" x="473.701" y="54.2087" width="190.83" height="172.049" filterUnits="userSpaceOnUse" color-interpolation-filters="sRGB">
<feFlood flood-opacity="0" result="BackgroundImageFix"/>
<feColorMatrix in="SourceAlpha" type="matrix" values="0 0 0 0 0 0 0 0 0 0 0 0 0 0 0 0 0 0 127 0" result="hardAlpha"/>
<feOffset dx="22" dy="22"/>
<feGaussianBlur stdDeviation="10"/>
<feComposite in2="hardAlpha" operator="out"/>
<feColorMatrix type="matrix" values="0 0 0 0 0.247059 0 0 0 0 0.443137 0 0 0 0 0.0823529 0 0 0 0.2 0"/>
<feBlend mode="normal" in2="BackgroundImageFix" result="effect1_dropShadow_101_2"/>
<feBlend mode="normal" in="SourceGraphic" in2="effect1_dropShadow_101_2" result="shape"/>
</filter>
<linearGradient id="paint0_linear_101_2" x1="1026.29" y1="657.445" x2="1034.39" y2="662.715" gradientUnits="userSpaceOnUse">
<stop stop-color="#999999"/>
<stop offset="0.09" stop-color="#C0C0C2"/>
<stop offset="0.19" stop-color="white"/>
<stop offset="0.3" stop-color="#C0C0C2"/>
<stop offset="0.52" stop-color="#999999"/>
<stop offset="0.66" stop-color="#525253"/>
<stop offset="0.76" stop-color="#C0C0C2"/>
<stop offset="1" stop-color="white"/>
</linearGradient>
<linearGradient id="paint1_linear_101_2" x1="1016.31" y1="662.33" x2="1073.27" y2="720.362" gradientUnits="userSpaceOnUse">
<stop stop-color="#999999"/>
<stop offset="0.09" stop-color="#C0C0C2"/>
<stop offset="0.19" stop-color="white"/>
<stop offset="0.3" stop-color="#C0C0C2"/>
<stop offset="0.52" stop-color="#999999"/>
<stop offset="0.66" stop-color="#525253"/>
<stop offset="0.76" stop-color="#C0C0C2"/>
<stop offset="1" stop-color="white"/>
</linearGradient>
<linearGradient id="paint2_linear_101_2" x1="1022.48" y1="656.354" x2="1079.45" y2="714.372" gradientUnits="userSpaceOnUse">
<stop stop-color="#999999"/>
<stop offset="0.09" stop-color="#C0C0C2"/>
<stop offset="0.19" stop-color="white"/>
<stop offset="0.3" stop-color="#C0C0C2"/>
<stop offset="0.52" stop-color="#999999"/>
<stop offset="0.66" stop-color="#525253"/>
<stop offset="0.76" stop-color="#C0C0C2"/>
<stop offset="1" stop-color="white"/>
</linearGradient>
<linearGradient id="paint3_linear_101_2" x1="1023.58" y1="655.21" x2="1080.54" y2="713.219" gradientUnits="userSpaceOnUse">
<stop stop-color="#999999"/>
<stop offset="0.09" stop-color="#C0C0C2"/>
<stop offset="0.19" stop-color="white"/>
<stop offset="0.3" stop-color="#C0C0C2"/>
<stop offset="0.52" stop-color="#999999"/>
<stop offset="0.66" stop-color="#525253"/>
<stop offset="0.76" stop-color="#C0C0C2"/>
<stop offset="1" stop-color="white"/>
</linearGradient>
<linearGradient id="paint4_linear_101_2" x1="1069.28" y1="718.415" x2="1077.39" y2="723.694" gradientUnits="userSpaceOnUse">
<stop stop-color="#999999"/>
<stop offset="0.09" stop-color="#C0C0C2"/>
<stop offset="0.19" stop-color="white"/>
<stop offset="0.3" stop-color="#C0C0C2"/>
<stop offset="0.52" stop-color="#999999"/>
<stop offset="0.66" stop-color="#525253"/>
<stop offset="0.76" stop-color="#C0C0C2"/>
<stop offset="1" stop-color="white"/>
</linearGradient>
<linearGradient id="paint5_linear_101_2" x1="822.037" y1="536.882" x2="883.681" y2="536.882" gradientUnits="userSpaceOnUse">
<stop offset="0.38" stop-color="#757575"/>
<stop offset="0.65" stop-color="#F5F5F5"/>
<stop offset="0.7" stop-color="#EAEAEA"/>
<stop offset="0.79" stop-color="#CCCCCC"/>
<stop offset="0.91" stop-color="#9D9D9D"/>
<stop offset="1" stop-color="#757575"/>
</linearGradient>
<linearGradient id="paint6_linear_101_2" x1="760.172" y1="606.737" x2="875.163" y2="606.737" gradientUnits="userSpaceOnUse">
<stop offset="0.38" stop-color="#757575"/>
<stop offset="0.65" stop-color="#F5F5F5"/>
<stop offset="0.7" stop-color="#EAEAEA"/>
<stop offset="0.79" stop-color="#CCCCCC"/>
<stop offset="0.91" stop-color="#9D9D9D"/>
<stop offset="1" stop-color="#757575"/>
</linearGradient>
<clipPath id="clip0_101_2">
<rect width="33.5461" height="31.4922" fill="white" transform="translate(202.484 611.128) rotate(21.1843)"/>
</clipPath>
<clipPath id="clip1_101_2">
<rect width="35" height="33" fill="white" transform="translate(540.445 672)"/>
</clipPath>
<clipPath id="clip2_101_2">
<rect width="34.0389" height="31.9548" fill="white" transform="translate(1043.96 945.489) rotate(21.1843)"/>
</clipPath>
<clipPath id="clip3_101_2">
<rect width="34.0389" height="31.9548" fill="white" transform="translate(1146.37 131.828) rotate(21.1843)"/>
</clipPath>
<clipPath id="clip4_101_2">
<rect width="480" height="306" fill="white" transform="matrix(-1 0 0 1 1180 505)"/>
</clipPath>
<clipPath id="clip5_101_2">
<rect width="47.4166" height="44.5136" fill="white" transform="translate(538.358 86.6611) rotate(39.2828)"/>
</clipPath>
</defs>
</svg>
